<?xml version="1.0" encoding="utf-8"?>
<!-- Generator: Adobe Illustrator 23.0.2, SVG Export Plug-In . SVG Version: 6.00 Build 0)  -->
<svg version="1.1" id="Layer_1" xmlns="http://www.w3.org/2000/svg" xmlns:xlink="http://www.w3.org/1999/xlink" x="0px" y="0px"
	 viewBox="0 0 550 135" style="enable-background:new 0 0 550 135;" xml:space="preserve">
<style type="text/css">
	.st0{fill:#FBFDFD;}
	.st1{fill:#F7FEFC;}
	.st2{fill:#F8FEFD;}
	.st3{fill:#F8FDFC;}
	.st4{fill:#F7FDFC;}
	.st5{fill:#F6FDFB;}
	.st6{fill:#78BEA4;}
	.st7{fill:#F0FDF9;}
	.st8{fill:#F1FDF9;}
	.st9{fill:#F1FCF9;}
	.st10{fill:#F1FBF8;}
	.st11{fill:#EFFBF9;}
	.st12{fill:#F3FBF9;}
	.st13{fill:#F0FCF9;}
	.st14{fill:#EEFDF9;}
	.st15{fill:#EBFCF6;}
	.st16{fill:#EFFCF9;}
	.st17{fill:#EEFBF8;}
	.st18{fill:#EEFCF8;}
	.st19{fill:#EEFCF7;}
	.st20{fill:#76BEA3;}
	.st21{fill:#75BFA2;}
	.st22{fill:#75BEA3;}
	.st23{fill:#76BFA2;}
	.st24{fill:#7EBFA8;}
</style>
<path class="st0" d="M240.76,71.44c-10.06-3.26-13.03-7.76-11.1-18.25c2.17-11.78,8.29-21.87,14.67-31.78
	c1-1.56,1.88-1.35,2.77,0.07c6.26,9.98,12.32,20.08,14.57,31.85c1.9,9.93-0.79,14.31-10.44,18.05c-2.21,1.15-4.47,0.71-5.47-1.31
	c-1.02-2.04-1.16-4.62,0.47-6.72c1.53-1.99,3.66-3.4,5.14-5.1c-1.28,1.24-2.64,3.11-5.01,1.5c-1.56-1.06-1.63-6.4-0.15-8.39
	c0.82-1.1,1.85-2.03,2.81-3.01c0.88-0.89,1.77-1.76,2.61-2.74c-1.42,1.19-2.82,2.5-4.83,1.36c-2.09-1.18-1.42-3.25-1.54-4.88
	c-0.23,1.57,0.73,3.68-1.33,4.85c-1.66,0.94-2.81-0.22-3.9-1.31c5.34,5.44,5.33,5.44,5.24,9.83c-0.03,1.52,0.08,3.06-1.61,3.86
	c-1.13,0.54-1.78,0.32-3.92-1.24c1.12,1.27,2.46,2.39,3.74,3.56c2.68,2.43,2.03,5.55,1.47,8.37
	C244.55,71.91,242.71,72.54,240.76,71.44z"/>
<path class="st1" d="M51.84,28.62c-0.45,0.12-0.4,0.11-0.84,0.23c0,4.56,0,9.12,0,13.69c0,8.62,0.02,17.23-0.03,25.85
	c-0.01,1.33,0.69,3.27-1.75,3.37c-2.8,0.12-1.97-2.1-1.97-3.48c-0.05-15.11-0.05-30.22,0.02-45.33c0.01-1.31-0.86-3.23,1.37-3.72
	c1.92-0.42,2.53,1.18,3.28,2.47c6.62,11.45,13.24,22.91,19.87,34.36c0.61,1.05,0.93,2.32,2.54,3.14c3.3-5.69,6.6-11.39,9.89-17.09
	c3.88-6.7,7.74-13.4,11.64-20.09c0.79-1.36,1.39-3.28,3.47-2.77c2.09,0.51,1.26,2.47,1.27,3.8c0.08,14.99,0.07,29.97,0.09,44.96
	c0,0.5-0.01,1-0.02,1.5c-0.03,1.17-0.07,2.3-1.71,2.32c-1.72,0.02-2.04-1.05-2.04-2.46c0-6.62-0.02-13.24-0.03-19.86
	c-0.01-6.86,0-13.72,0-20.99c-2.04,0.82-2.41,2.51-3.15,3.78c-5.78,9.92-11.48,19.89-17.23,29.83c-2.15,3.72-3,3.72-5.21-0.08
	c-5.71-9.82-11.38-19.66-17.07-29.49C53.45,31.24,52.64,29.93,51.84,28.62z"/>
<path class="st2" d="M463.77,26.51c0,14.3,0,27.54,0,40.77c0,1-0.03,2-0.05,3c-0.01,1.1-0.64,1.54-1.66,1.57
	c-1.12,0.03-1.99-0.24-2.02-1.6c-0.02-1.12-0.07-2.25-0.07-3.37c-0.01-14.49-0.04-28.98,0.04-43.46c0.01-1.42-1-3.49,1.27-4.16
	c1.97-0.58,2.86,1.13,3.84,2.38c10.16,12.97,20.3,25.96,30.46,38.93c0.81,1.04,1.42,2.34,3.41,3.04c0-1.65,0-3.08,0-4.51
	c0-12.11-0.03-24.23,0.03-36.34c0.01-1.41-0.83-3.61,1.91-3.56c2.74,0.05,1.81,2.27,1.82,3.65c0.07,14.99,0.07,29.97,0,44.96
	c-0.01,1.34,0.88,3.25-1.08,3.93c-1.9,0.66-2.88-0.91-3.9-2.21c-10.47-13.37-20.95-26.72-31.44-40.07
	C465.75,28.69,465.08,28,463.77,26.51z"/>
<path class="st3" d="M351,71.89c-3.62,0-7.24-0.07-10.86,0.02c-2.27,0.06-3.02-0.88-2.99-3.13c0.11-6.87,0.03-13.73,0.04-20.6
	c0-1.4-0.09-2.84,2.03-2.76c1.94,0.08,1.71,1.47,1.71,2.68c0.03,5.62,0.13,11.24-0.02,16.86c-0.07,2.55,0.67,3.59,3.35,3.45
	c6.1-0.32,12.24,0.49,18.32-0.46c12.64-1.97,20.28-11.52,19.46-24.2c-0.77-11.9-9.84-20.54-22.25-20.96
	c-6.49-0.22-12.98-0.08-19.48-0.17c-1.24-0.02-3.01,0.51-3.05-1.7c-0.04-2.21,1.71-1.8,2.97-1.78c7.73,0.17,15.49-0.62,23.19,0.53
	c14.14,2.11,23.17,13.22,22.49,27.59c-0.63,13.31-10.97,23.5-24.82,24.33c-3.36,0.2-6.74,0.03-10.1,0.03
	C351,71.71,351,71.8,351,71.89z"/>
<path class="st4" d="M215.7,56c0,0.87,0,1.75,0,2.62c0.01,7.8-0.8,8.96-8.16,11.69c-16.38,6.07-33.42-2.16-37.54-18.11
	c-2.8-10.84,1.55-22.57,10.63-28.7c9.16-6.19,23.89-6.17,32.23,0.03c0.3,0.22,0.62,0.44,0.88,0.7c0.84,0.84,2.15,1.47,0.88,3.02
	c-1.24,1.51-2.08,0.54-3.09-0.22c-6.86-5.18-14.55-5.71-22.45-3.41c-10.96,3.19-17.26,13.6-15.75,25.35
	c1.37,10.63,10.52,18.93,21.44,19.55c4.69,0.26,9.2-0.24,13.49-2.32c2.51-1.22,3.77-2.88,3.59-5.85c-0.24-3.86-0.07-7.74-0.04-11.61
	c0.01-1.38-0.11-2.87,2.01-2.81c2.16,0.06,1.83,1.65,1.86,2.96C215.74,51.26,215.7,53.63,215.7,56z"/>
<path class="st5" d="M289.31,51.25c4.36-0.11,8.75,0.25,13.07-0.72c7-1.57,11.13-6.59,11.08-13.56
	c-0.05-7.17-4.02-12.02-11.06-13.53c-6.56-1.41-13.2-0.55-19.81-0.78c-1.12-0.04-2.25-0.02-3.37-0.05c-1.23-0.03-1.8-0.65-1.74-1.9
	c0.05-1.12,0.71-1.57,1.71-1.54c8.71,0.28,17.52-1.18,26.1,1.33c6.96,2.04,11.46,7.48,11.96,14.28c0.57,7.63-1.79,13.9-9.04,17.37
	c-2.48,1.19-2.84,2-1.11,4.2c3.08,3.93,5.9,8.07,8.74,12.18c0.59,0.86,2.35,1.88,0.64,3.02c-1.22,0.81-2.64,0.35-3.59-0.99
	c-2.89-4.08-5.98-8.02-8.66-12.24c-1.86-2.93-3.8-4.28-7.53-3.76c-4.17,0.58-8.48,0.22-12.73,0.16c-2.09-0.03-2.88,0.83-2.83,2.9
	c0.09,3.87,0.02,7.75,0.01,11.62c0,1.32-0.05,2.57-1.86,2.61c-1.82,0.04-1.91-1.21-1.91-2.54c0-5.12,0.06-10.25-0.02-15.37
	c-0.04-2.19,0.97-2.79,2.97-2.72C283.31,51.32,286.31,51.25,289.31,51.25z"/>
<path class="st5" d="M136.59,60.75c1.05-4.69-1.12-9.47-4.29-14.24c-5.11-7.69-9.79-15.68-14.51-23.62c-0.59-1-2.86-2.37-0.84-3.58
	c1.68-1,3.14,0.39,4.17,2.09c5.03,8.34,10.17,16.62,15.25,24.93c2.3,3.76,2.3,3.78,4.61,0.05c4.85-7.87,9.68-15.75,14.53-23.62
	c0.59-0.96,1.19-1.91,1.86-2.81c0.81-1.08,2.12-1.17,3.04-0.59c1.24,0.78,0.04,1.79-0.39,2.5c-5.44,8.97-10.71,18.06-16.52,26.78
	c-2.71,4.06-3.28,8.18-3.06,12.75c0.12,2.49,0.03,5,0,7.5c-0.02,1.41,0,2.88-2.07,2.8c-1.84-0.08-1.76-1.43-1.77-2.69
	C136.58,66.63,136.59,64.25,136.59,60.75z"/>
<path class="st6" d="M240.76,71.44c3.43-0.7,4.44-5.23,1.73-8.29c-1.9-2.15-4-4.11-6.02-6.16c-0.87-0.88-1.48-1.86-0.35-2.88
	c1-0.9,1.83-0.09,2.59,0.58c0.19,0.17,0.33,0.39,0.54,0.51c1.47,0.86,2.9,4.04,4.02,2.58c1.33-1.73,1.33-5.02-0.83-7.23
	c-1.84-1.87-3.71-3.7-5.53-5.59c-0.84-0.87-2.14-1.87-0.82-3.11c1.28-1.21,2.22,0.16,3.16,0.91c1.31,1.05,2.18,2.68,4.63,3.51
	c0-2.84-0.04-5.27,0.02-7.71c0.02-1.01,0.22-2.16,1.56-2.12c1.31,0.04,1.39,1.2,1.52,2.2c0.33,2.56-0.42,5.21,0.61,7.83
	c2.19-0.63,3.11-2.59,4.64-3.77c1.01-0.78,1.97-2.54,3.4-1.22c1.46,1.35-0.13,2.46-1.01,3.4c-1.62,1.73-3.21,3.53-5.03,5.02
	c-3.13,2.57-2.82,5.7-2.03,9.7c2.07-1.96,3.73-3.58,5.44-5.15c0.83-0.76,1.81-1.64,2.86-0.43c0.86,0.99,0.12,1.87-0.6,2.6
	c-2.09,2.14-4.18,4.29-6.32,6.39c-1.11,1.08-1.81,2.21-1.93,3.87c-0.23,3.18,0.49,5.18,4.23,4.48
	C247.75,72.7,244.25,72.03,240.76,71.44z"/>
<path class="st7" d="M212.74,106.88c-0.3,2.24-0.68,5.08-1.06,7.92c-0.12,0.92-0.34,1.77-1.56,1.61c-1.33-0.17-1.02-1.22-0.95-2.03
	c0.23-2.61,0.61-5.2,0.77-7.81c0.07-1.13,0.52-2.69-1.24-3.08c-1.4-0.31-2.31,0.61-3.15,1.6c-1.75,2.05-1.65,4.64-2.11,7.06
	c-0.16,0.85-0.18,1.74-0.28,2.6c-0.11,0.95-0.44,1.73-1.6,1.64c-1.28-0.09-1.21-1.02-1.12-1.92c0.27-2.6,0.57-5.21,0.85-7.81
	c0.14-1.25,0.47-2.69-1.11-3.17c-1.34-0.4-2.36,0.52-3.13,1.55c-1.3,1.75-1.96,3.71-2.07,5.9c-0.08,1.49-0.39,2.96-0.64,4.43
	c-0.12,0.71-0.65,1.03-1.35,0.98c-0.79-0.06-1.08-0.65-1.01-1.29c0.49-4.33,1-8.66,1.56-12.98c0.1-0.79,1.16-1.08,1.36-0.65
	c1.38,3.01,2.7,0.53,4.04,0.07c1.48-0.51,3.19-0.88,4.07,0.63c1.04,1.81,1.69,1.56,2.95,0.31c1.3-1.29,3.01-1.91,4.81-1.06
	C212.84,102.38,212.74,104.38,212.74,106.88z"/>
<path class="st8" d="M304.35,101.65c0.29-1.84,0.61-3.68,0.86-5.52c0.13-0.97,0.42-1.75,1.58-1.61c0.97,0.12,1.08,0.89,0.99,1.69
	c-0.75,6.18-1.5,12.36-2.28,18.54c-0.09,0.7-0.16,1.55-1.18,1.63c-1.65,0.13-0.9-1.78-1.95-2.33c-0.68,0.54-1.31,1.14-2.03,1.6
	c-3.1,1.97-5.93,0.8-6.79-2.79C291.88,105.89,297.24,100.22,304.35,101.65z"/>
<path class="st9" d="M258.75,94.85c5.78,0.03,8.13,1.6,8.36,5.34c0.29,4.61-2.44,7.9-7.38,7.99c-3.28,0.05-4.47,1.34-4.53,4.33
	c-0.02,0.87-0.16,1.74-0.29,2.6c-0.16,1.09-0.86,1.44-1.88,1.27c-1.03-0.17-1.01-0.99-0.93-1.73c0.73-6.07,1.34-12.16,2.32-18.18
	C254.88,93.68,257.59,95.48,258.75,94.85z"/>
<path class="st10" d="M421.17,22.66c-4.73,0-9.45,0.02-14.18-0.02c-1.17-0.01-2.68,0.28-2.77-1.62c-0.1-2.16,1.54-1.91,2.85-1.91
	c9.33-0.02,18.65-0.03,27.98,0.01c1.29,0,2.98-0.35,2.94,1.81c-0.04,2.16-1.77,1.7-3.03,1.72
	C430.38,22.69,425.77,22.66,421.17,22.66z"/>
<path class="st11" d="M421.03,46.76c-4.74,0-9.49,0.01-14.23-0.01c-1.24-0.01-2.65,0.13-2.59-1.79c0.05-1.61,1.27-1.66,2.4-1.66
	c9.74-0.02,19.48-0.01,29.22,0.01c1.2,0,2.25,0.25,2.21,1.85c-0.05,1.71-1.29,1.59-2.39,1.59C430.77,46.78,425.9,46.76,421.03,46.76
	z"/>
<path class="st12" d="M420.95,71.95c-4.61,0-9.21,0.03-13.82-0.02c-1.28-0.01-2.96,0.31-2.92-1.87c0.03-1.94,1.53-1.67,2.71-1.67
	c9.46-0.03,18.92-0.03,28.39,0c1.16,0,2.67-0.32,2.72,1.64c0.05,2.17-1.57,1.89-2.88,1.9C430.42,71.97,425.68,71.95,420.95,71.95z"
	/>
<path class="st8" d="M181.07,116.56c-0.28-0.06-1.21-0.06-1.96-0.42c-1.26-0.6-3.27-1.16-2.34-3.02c0.91-1.82,2.1,0.03,3.07,0.46
	c2.65,1.18,5.06,1.01,6.38-1.71c1.55-3.19-0.76-4.34-3.31-5.35c-4.26-1.69-5.44-4.22-3.87-7.78c1.55-3.52,6.07-5.13,9.46-3.34
	c0.87,0.46,2.01,0.92,1.52,2.16c-0.54,1.37-1.57,0.76-2.47,0.27c-2.47-1.35-4.75-1.16-5.9,1.58c-1.24,2.95,1.19,3.93,3.3,4.78
	c3.08,1.23,5.2,2.97,4.35,6.72C188.48,114.54,185.61,116.69,181.07,116.56z"/>
<path class="st13" d="M215.24,110.97c0.07-5.64,5.2-10.51,10.42-9.94c2.05,0.22,3.17,0.89,2.72,3.33c-0.61,3.3-0.83,6.68-1.28,10.01
	c-0.13,0.92-0.92,2.69-1.51,1.82c-1.96-2.91-3.26-0.33-4.79,0.14C217.49,117.36,215.19,115.16,215.24,110.97z"/>
<path class="st13" d="M309.76,112.12c0.31-3.05,0.51-5.53,0.83-8c0.15-1.15-0.09-2.9,1.67-2.82c1.97,0.09,1.17,1.87,1.12,2.94
	c-0.1,2.23-0.49,4.45-0.64,6.68c-0.08,1.19-0.37,2.67,1.2,3.18c1.53,0.5,2.53-0.51,3.53-1.53c2.29-2.37,1.99-5.52,2.65-8.39
	c0.25-1.08-0.27-2.95,1.66-2.72c1.97,0.24,1,1.94,0.9,3.01c-0.29,3.35-0.67,6.68-1.11,10.01c-0.14,1.05-0.92,2.93-1.87,1.55
	c-1.59-2.31-2.47-0.83-3.78-0.16C312.29,117.75,309.67,115.87,309.76,112.12z"/>
<path class="st8" d="M291.13,107.97c-0.15,4.98-3.69,8.81-7.94,8.59c-3.47-0.18-5.5-2.71-5.38-6.71c0.14-4.92,3.63-8.83,7.87-8.83
	C289.2,101.03,291.26,103.65,291.13,107.97z"/>
<path class="st14" d="M338.73,110.1c0.03-5.14,3.61-9.23,7.99-9.05c2,0.08,3.76,0.75,4.19,2.98c0.4,2.05-0.79,3.36-2.54,4.07
	c-1.49,0.6-3.1,0.92-4.63,1.42c-0.94,0.31-2.49-0.09-2.3,1.73c0.16,1.49,0.83,2.63,2.39,2.97c1.53,0.33,2.96,0.02,4.28-0.87
	c0.59-0.4,1.39-0.91,1.85,0.09c0.31,0.66-0.35,1.12-0.83,1.51c-2.24,1.79-4.78,2.22-7.38,1.1
	C339.23,114.95,338.69,112.62,338.73,110.1z"/>
<path class="st7" d="M325.36,110.52c0.16-6.17,4.22-10.24,8.8-9.32c1.22,0.25,2.93,0.56,2.65,2.03c-0.36,1.86-1.76,0.46-2.68,0.21
	c-2.4-0.65-3.85,0.64-4.88,2.46c-1.33,2.36-2.14,4.97-0.3,7.37c1.39,1.81,3.31,1.23,5.07,0.29c0.6-0.32,1.33-1.15,1.91-0.23
	c0.65,1.03-0.42,1.6-1.05,2.05c-2.09,1.46-4.47,1.78-6.73,0.67C325.72,114.85,325.17,112.52,325.36,110.52z"/>
<path class="st15" d="M366.64,116.67c-0.6-0.11-1.5-0.15-2.29-0.46c-0.76-0.3-1.84-0.69-1.44-1.81c0.47-1.33,1.36-0.54,2.12-0.21
	c1.92,0.85,3.87,0.94,4.78-1.23c1.01-2.45-1.28-2.81-2.82-3.46c-1.73-0.73-3.12-1.79-3.03-3.81c0.08-1.87,1.12-3.31,2.87-4.06
	c1.92-0.82,3.88-0.95,5.74,0.22c0.4,0.25,0.84,0.6,0.62,1.21c-0.21,0.57-0.71,0.65-1.21,0.58c-1.1-0.15-2.19-0.48-3.28-0.49
	c-0.91-0.01-1.63,0.59-1.92,1.53c-0.29,0.98,0.12,1.7,0.94,2.21c0.42,0.26,0.86,0.51,1.32,0.7c2.21,0.9,4.19,2.04,3.43,4.92
	C371.73,115.27,369.68,116.48,366.64,116.67z"/>
<path class="st16" d="M231.11,114.09c0.74-6.21,1.45-12.02,2.11-17.83c0.12-1.09,0.29-2.05,1.66-1.93c1.56,0.13,1.18,1.26,1.06,2.24
	c-0.7,5.81-1.37,11.62-2.1,17.43c-0.13,1.04-0.03,2.54-1.69,2.36C230.44,116.17,231.2,114.68,231.11,114.09z"/>
<path class="st17" d="M237.86,114.24c0.75-6.33,1.47-12.27,2.13-18.22c0.13-1.21,0.56-1.9,1.85-1.69c1.3,0.21,0.98,1.17,0.88,2.03
	c-0.71,5.94-1.39,11.88-2.13,17.82c-0.13,1.07-0.23,2.48-1.89,2.15C237.2,116.04,238.08,114.69,237.86,114.24z"/>
<path class="st18" d="M268.36,113.12c0.39-3.18,0.73-6.51,1.23-9.82c0.23-1.52,0.89-2.88,2.49-0.98c1.51,1.79,1.83-0.62,2.81-0.7
	c0.93-0.07,2.04-0.82,2.49,0.57c0.36,1.11-0.48,1.4-1.46,1.62c-3.11,0.68-3.67,3.38-4.35,5.88c-0.35,1.31-0.29,2.72-0.62,4.04
	c-0.25,1.03,0.33,2.97-1.68,2.62C267.36,116.02,268.61,114.35,268.36,113.12z"/>
<path class="st19" d="M357.48,103.74c0.77-0.72,1.25-1.34,1.88-1.7c1.02-0.59,2.43-1.68,3.14-0.06c0.6,1.37-0.94,1.49-2,1.93
	c-3.4,1.42-3.66,4.68-4.25,7.76c-0.32,1.67,0.45,4.75-1.87,4.48c-2.34-0.27-0.82-3.05-0.71-4.71c0.18-2.61,0.57-5.21,0.95-7.79
	c0.13-0.87-0.3-2.24,1.24-2.29C357.37,101.31,356.78,102.89,357.48,103.74z"/>
<path class="st20" d="M296.16,110.78c0.08-4.45,2.36-7.68,5.08-7.58c1.97,0.08,2.77,1.11,2.66,3.14c-0.2,3.82-3.02,8.15-5.42,7.9
	C296.02,113.99,296.33,111.98,296.16,110.78z"/>
<path class="st21" d="M256.51,102.23c0.6-1.86-0.87-5.39,3.58-5.1c2.67,0.17,4.2,1.32,4.1,4.14c-0.11,3.03-2.23,4.87-5.46,4.78
	C256.43,105.98,256.33,105.82,256.51,102.23z"/>
<path class="st22" d="M218.05,110.48c0.16-3.33,1.65-5.91,4.87-7.18c1.64-0.65,3.02-0.4,2.64,1.98c-0.4,2.45-0.69,4.94-2.27,6.99
	c-0.92,1.19-1.96,2.45-3.7,1.8C217.97,113.48,218.24,111.88,218.05,110.48z"/>
<path class="st23" d="M288.54,107.39c-0.04,3.96-2.14,7.04-4.65,6.96c-2.86-0.09-3.33-2.17-3.36-4.43
	c-0.05-3.55,2.18-6.77,4.64-6.68C288.03,103.35,288.39,105.48,288.54,107.39z"/>
<path class="st24" d="M344.04,107.54c-1.08,0-2.22,0.08-1.8-1.24c0.6-1.87,1.9-3.17,4.02-3.26c1.08-0.05,2.21,0.38,2.08,1.56
	C348.04,107.21,345.67,107.04,344.04,107.54z"/>
<path class="st0" d="M240.76,71.44c-10.06-3.26-13.03-7.76-11.1-18.25c2.17-11.78,8.29-21.87,14.67-31.78
	c1-1.56,1.88-1.35,2.77,0.07c6.26,9.98,12.32,20.08,14.57,31.85c1.9,9.93-0.79,14.31-10.44,18.05c-2.21,1.15-4.47,0.71-5.47-1.31
	c-1.02-2.04-1.16-4.62,0.47-6.72c1.53-1.99,3.66-3.4,5.14-5.1c-1.28,1.24-2.64,3.11-5.01,1.5c-1.56-1.06-1.63-6.4-0.15-8.39
	c0.82-1.1,1.85-2.03,2.81-3.01c0.88-0.89,1.77-1.76,2.61-2.74c-1.42,1.19-2.82,2.5-4.83,1.36c-2.09-1.18-1.42-3.25-1.54-4.88
	c-0.23,1.57,0.73,3.68-1.33,4.85c-1.66,0.94-2.81-0.22-3.9-1.31c5.34,5.44,5.33,5.44,5.24,9.83c-0.03,1.52,0.08,3.06-1.61,3.86
	c-1.13,0.54-1.78,0.32-3.92-1.24c1.12,1.27,2.46,2.39,3.74,3.56c2.68,2.43,2.03,5.55,1.47,8.37
	C244.55,71.91,242.71,72.54,240.76,71.44z"/>
<path class="st1" d="M51.84,28.62c-0.45,0.12-0.4,0.11-0.84,0.23c0,4.56,0,9.12,0,13.69c0,8.62,0.02,17.23-0.03,25.85
	c-0.01,1.33,0.69,3.27-1.75,3.37c-2.8,0.12-1.97-2.1-1.97-3.48c-0.05-15.11-0.05-30.22,0.02-45.33c0.01-1.31-0.86-3.23,1.37-3.72
	c1.92-0.42,2.53,1.18,3.28,2.47c6.62,11.45,13.24,22.91,19.87,34.36c0.61,1.05,0.93,2.32,2.54,3.14c3.3-5.69,6.6-11.39,9.89-17.09
	c3.88-6.7,7.74-13.4,11.64-20.09c0.79-1.36,1.39-3.28,3.47-2.77c2.09,0.51,1.26,2.47,1.27,3.8c0.08,14.99,0.07,29.97,0.09,44.96
	c0,0.5-0.01,1-0.02,1.5c-0.03,1.17-0.07,2.3-1.71,2.32c-1.72,0.02-2.04-1.05-2.04-2.46c0-6.62-0.02-13.24-0.03-19.86
	c-0.01-6.86,0-13.72,0-20.99c-2.04,0.82-2.41,2.51-3.15,3.78c-5.78,9.92-11.48,19.89-17.23,29.83c-2.15,3.72-3,3.72-5.21-0.08
	c-5.71-9.82-11.38-19.66-17.07-29.49C53.45,31.24,52.64,29.93,51.84,28.62z"/>
<path class="st2" d="M463.77,26.51c0,14.3,0,27.54,0,40.77c0,1-0.03,2-0.05,3c-0.01,1.1-0.64,1.54-1.66,1.57
	c-1.12,0.03-1.99-0.24-2.02-1.6c-0.02-1.12-0.07-2.25-0.07-3.37c-0.01-14.49-0.04-28.98,0.04-43.46c0.01-1.42-1-3.49,1.27-4.16
	c1.97-0.58,2.86,1.13,3.84,2.38c10.16,12.97,20.3,25.96,30.46,38.93c0.81,1.04,1.42,2.34,3.41,3.04c0-1.65,0-3.08,0-4.51
	c0-12.11-0.03-24.23,0.03-36.34c0.01-1.41-0.83-3.61,1.91-3.56c2.74,0.05,1.81,2.27,1.82,3.65c0.07,14.99,0.07,29.97,0,44.96
	c-0.01,1.34,0.88,3.25-1.08,3.93c-1.9,0.66-2.88-0.91-3.9-2.21c-10.47-13.37-20.95-26.72-31.44-40.07
	C465.75,28.69,465.08,28,463.77,26.51z"/>
<path class="st3" d="M351,71.89c-3.62,0-7.24-0.07-10.86,0.02c-2.27,0.06-3.02-0.88-2.99-3.13c0.11-6.87,0.03-13.73,0.04-20.6
	c0-1.4-0.09-2.84,2.03-2.76c1.94,0.08,1.71,1.47,1.71,2.68c0.03,5.62,0.13,11.24-0.02,16.86c-0.07,2.55,0.67,3.59,3.35,3.45
	c6.1-0.32,12.24,0.49,18.32-0.46c12.64-1.97,20.28-11.52,19.46-24.2c-0.77-11.9-9.84-20.54-22.25-20.96
	c-6.49-0.22-12.98-0.08-19.48-0.17c-1.24-0.02-3.01,0.51-3.05-1.7c-0.04-2.21,1.71-1.8,2.97-1.78c7.73,0.17,15.49-0.62,23.19,0.53
	c14.14,2.11,23.17,13.22,22.49,27.59c-0.63,13.31-10.97,23.5-24.82,24.33c-3.36,0.2-6.74,0.03-10.1,0.03
	C351,71.71,351,71.8,351,71.89z"/>
<path class="st4" d="M215.7,56c0,0.87,0,1.75,0,2.62c0.01,7.8-0.8,8.96-8.16,11.69c-16.38,6.07-33.42-2.16-37.54-18.11
	c-2.8-10.84,1.55-22.57,10.63-28.7c9.16-6.19,23.89-6.17,32.23,0.03c0.3,0.22,0.62,0.44,0.88,0.7c0.84,0.84,2.15,1.47,0.88,3.02
	c-1.24,1.51-2.08,0.54-3.09-0.22c-6.86-5.18-14.55-5.71-22.45-3.41c-10.96,3.19-17.26,13.6-15.75,25.35
	c1.37,10.63,10.52,18.93,21.44,19.55c4.69,0.26,9.2-0.24,13.49-2.32c2.51-1.22,3.77-2.88,3.59-5.85c-0.24-3.86-0.07-7.74-0.04-11.61
	c0.01-1.38-0.11-2.87,2.01-2.81c2.16,0.06,1.83,1.65,1.86,2.96C215.74,51.26,215.7,53.63,215.7,56z"/>
<path class="st5" d="M289.31,51.25c4.36-0.11,8.75,0.25,13.07-0.72c7-1.57,11.13-6.59,11.08-13.56
	c-0.05-7.17-4.02-12.02-11.06-13.53c-6.56-1.41-13.2-0.55-19.81-0.78c-1.12-0.04-2.25-0.02-3.37-0.05c-1.23-0.03-1.8-0.65-1.74-1.9
	c0.05-1.12,0.71-1.57,1.71-1.54c8.71,0.28,17.52-1.18,26.1,1.33c6.96,2.04,11.46,7.48,11.96,14.28c0.57,7.63-1.79,13.9-9.04,17.37
	c-2.48,1.19-2.84,2-1.11,4.2c3.08,3.93,5.9,8.07,8.74,12.18c0.59,0.86,2.35,1.88,0.64,3.02c-1.22,0.81-2.64,0.35-3.59-0.99
	c-2.89-4.08-5.98-8.02-8.66-12.24c-1.86-2.93-3.8-4.28-7.53-3.76c-4.17,0.58-8.48,0.22-12.73,0.16c-2.09-0.03-2.88,0.83-2.83,2.9
	c0.09,3.87,0.02,7.75,0.01,11.62c0,1.32-0.05,2.57-1.86,2.61c-1.82,0.04-1.91-1.21-1.91-2.54c0-5.12,0.06-10.25-0.02-15.37
	c-0.04-2.19,0.97-2.79,2.97-2.72C283.31,51.32,286.31,51.25,289.31,51.25z"/>
<path class="st5" d="M136.59,60.75c1.05-4.69-1.12-9.47-4.29-14.24c-5.11-7.69-9.79-15.68-14.51-23.62c-0.59-1-2.86-2.37-0.84-3.58
	c1.68-1,3.14,0.39,4.17,2.09c5.03,8.34,10.17,16.62,15.25,24.93c2.3,3.76,2.3,3.78,4.61,0.05c4.85-7.87,9.68-15.75,14.53-23.62
	c0.59-0.96,1.19-1.91,1.86-2.81c0.81-1.08,2.12-1.17,3.04-0.59c1.24,0.78,0.04,1.79-0.39,2.5c-5.44,8.97-10.71,18.06-16.52,26.78
	c-2.71,4.06-3.28,8.18-3.06,12.75c0.12,2.49,0.03,5,0,7.5c-0.02,1.41,0,2.88-2.07,2.8c-1.84-0.08-1.76-1.43-1.77-2.69
	C136.58,66.63,136.59,64.25,136.59,60.75z"/>
<path class="st6" d="M240.76,71.44c3.43-0.7,4.44-5.23,1.73-8.29c-1.9-2.15-4-4.11-6.02-6.16c-0.87-0.88-1.48-1.86-0.35-2.88
	c1-0.9,1.83-0.09,2.59,0.58c0.19,0.17,0.33,0.39,0.54,0.51c1.47,0.86,2.9,4.04,4.02,2.58c1.33-1.73,1.33-5.02-0.83-7.23
	c-1.84-1.87-3.71-3.7-5.53-5.59c-0.84-0.87-2.14-1.87-0.82-3.11c1.28-1.21,2.22,0.16,3.16,0.91c1.31,1.05,2.18,2.68,4.63,3.51
	c0-2.84-0.04-5.27,0.02-7.71c0.02-1.01,0.22-2.16,1.56-2.12c1.31,0.04,1.39,1.2,1.52,2.2c0.33,2.56-0.42,5.21,0.61,7.83
	c2.19-0.63,3.11-2.59,4.64-3.77c1.01-0.78,1.97-2.54,3.4-1.22c1.46,1.35-0.13,2.46-1.01,3.4c-1.62,1.73-3.21,3.53-5.03,5.02
	c-3.13,2.57-2.82,5.7-2.03,9.7c2.07-1.96,3.73-3.58,5.44-5.15c0.83-0.76,1.81-1.64,2.86-0.43c0.86,0.99,0.12,1.87-0.6,2.6
	c-2.09,2.14-4.18,4.29-6.32,6.39c-1.11,1.08-1.81,2.21-1.93,3.87c-0.23,3.18,0.49,5.18,4.23,4.48
	C247.75,72.7,244.25,72.03,240.76,71.44z"/>
<path class="st7" d="M212.74,106.88c-0.3,2.24-0.68,5.08-1.06,7.92c-0.12,0.92-0.34,1.77-1.56,1.61c-1.33-0.17-1.02-1.22-0.95-2.03
	c0.23-2.61,0.61-5.2,0.77-7.81c0.07-1.13,0.52-2.69-1.24-3.08c-1.4-0.31-2.31,0.61-3.15,1.6c-1.75,2.05-1.65,4.64-2.11,7.06
	c-0.16,0.85-0.18,1.74-0.28,2.6c-0.11,0.95-0.44,1.73-1.6,1.64c-1.28-0.09-1.21-1.02-1.12-1.92c0.27-2.6,0.57-5.21,0.85-7.81
	c0.14-1.25,0.47-2.69-1.11-3.17c-1.34-0.4-2.36,0.52-3.13,1.55c-1.3,1.75-1.96,3.71-2.07,5.9c-0.08,1.49-0.39,2.96-0.64,4.43
	c-0.12,0.71-0.65,1.03-1.35,0.98c-0.79-0.06-1.08-0.65-1.01-1.29c0.49-4.33,1-8.66,1.56-12.98c0.1-0.79,1.16-1.08,1.36-0.65
	c1.38,3.01,2.7,0.53,4.04,0.07c1.48-0.51,3.19-0.88,4.07,0.63c1.04,1.81,1.69,1.56,2.95,0.31c1.3-1.29,3.01-1.91,4.81-1.06
	C212.84,102.38,212.74,104.38,212.74,106.88z"/>
<path class="st8" d="M304.35,101.65c0.29-1.84,0.61-3.68,0.86-5.52c0.13-0.97,0.42-1.75,1.58-1.61c0.97,0.12,1.08,0.89,0.99,1.69
	c-0.75,6.18-1.5,12.36-2.28,18.54c-0.09,0.7-0.16,1.55-1.18,1.63c-1.65,0.13-0.9-1.78-1.95-2.33c-0.68,0.54-1.31,1.14-2.03,1.6
	c-3.1,1.97-5.93,0.8-6.79-2.79C291.88,105.89,297.24,100.22,304.35,101.65z"/>
<path class="st9" d="M258.75,94.85c5.78,0.03,8.13,1.6,8.36,5.34c0.29,4.61-2.44,7.9-7.38,7.99c-3.28,0.05-4.47,1.34-4.53,4.33
	c-0.02,0.87-0.16,1.74-0.29,2.6c-0.16,1.09-0.86,1.44-1.88,1.27c-1.03-0.17-1.01-0.99-0.93-1.73c0.73-6.07,1.34-12.16,2.32-18.18
	C254.88,93.68,257.59,95.48,258.75,94.85z"/>
<path class="st10" d="M421.17,22.66c-4.73,0-9.45,0.02-14.18-0.02c-1.17-0.01-2.68,0.28-2.77-1.62c-0.1-2.16,1.54-1.91,2.85-1.91
	c9.33-0.02,18.65-0.03,27.98,0.01c1.29,0,2.98-0.35,2.94,1.81c-0.04,2.16-1.77,1.7-3.03,1.72
	C430.38,22.69,425.77,22.66,421.17,22.66z"/>
<path class="st11" d="M421.03,46.76c-4.74,0-9.49,0.01-14.23-0.01c-1.24-0.01-2.65,0.13-2.59-1.79c0.05-1.61,1.27-1.66,2.4-1.66
	c9.74-0.02,19.48-0.01,29.22,0.01c1.2,0,2.25,0.25,2.21,1.85c-0.05,1.71-1.29,1.59-2.39,1.59C430.77,46.78,425.9,46.76,421.03,46.76
	z"/>
<path class="st12" d="M420.95,71.95c-4.61,0-9.21,0.03-13.82-0.02c-1.28-0.01-2.96,0.31-2.92-1.87c0.03-1.94,1.53-1.67,2.71-1.67
	c9.46-0.03,18.92-0.03,28.39,0c1.16,0,2.67-0.32,2.72,1.64c0.05,2.17-1.57,1.89-2.88,1.9C430.42,71.97,425.68,71.95,420.95,71.95z"
	/>
<path class="st8" d="M181.07,116.56c-0.28-0.06-1.21-0.06-1.96-0.42c-1.26-0.6-3.27-1.16-2.34-3.02c0.91-1.82,2.1,0.03,3.07,0.46
	c2.65,1.18,5.06,1.01,6.38-1.71c1.55-3.19-0.76-4.34-3.31-5.35c-4.26-1.69-5.44-4.22-3.87-7.78c1.55-3.52,6.07-5.13,9.46-3.34
	c0.87,0.46,2.01,0.92,1.52,2.16c-0.54,1.37-1.57,0.76-2.47,0.27c-2.47-1.35-4.75-1.16-5.9,1.58c-1.24,2.95,1.19,3.93,3.3,4.78
	c3.08,1.23,5.2,2.97,4.35,6.72C188.48,114.54,185.61,116.69,181.07,116.56z"/>
<path class="st13" d="M215.24,110.97c0.07-5.64,5.2-10.51,10.42-9.94c2.05,0.22,3.17,0.89,2.72,3.33c-0.61,3.3-0.83,6.68-1.28,10.01
	c-0.13,0.92-0.92,2.69-1.51,1.82c-1.96-2.91-3.26-0.33-4.79,0.14C217.49,117.36,215.19,115.16,215.24,110.97z"/>
<path class="st13" d="M309.76,112.12c0.31-3.05,0.51-5.53,0.83-8c0.15-1.15-0.09-2.9,1.67-2.82c1.97,0.09,1.17,1.87,1.12,2.94
	c-0.1,2.23-0.49,4.45-0.64,6.68c-0.08,1.19-0.37,2.67,1.2,3.18c1.53,0.5,2.53-0.51,3.53-1.53c2.29-2.37,1.99-5.52,2.65-8.39
	c0.25-1.08-0.27-2.95,1.66-2.72c1.97,0.24,1,1.94,0.9,3.01c-0.29,3.35-0.67,6.68-1.11,10.01c-0.14,1.05-0.92,2.93-1.87,1.55
	c-1.59-2.31-2.47-0.83-3.78-0.16C312.29,117.75,309.67,115.87,309.76,112.12z"/>
<path class="st8" d="M291.13,107.97c-0.15,4.98-3.69,8.81-7.94,8.59c-3.47-0.18-5.5-2.71-5.38-6.71c0.14-4.92,3.63-8.83,7.87-8.83
	C289.2,101.03,291.26,103.65,291.13,107.97z"/>
<path class="st14" d="M338.73,110.1c0.03-5.14,3.61-9.23,7.99-9.05c2,0.08,3.76,0.75,4.19,2.98c0.4,2.05-0.79,3.36-2.54,4.07
	c-1.49,0.6-3.1,0.92-4.63,1.42c-0.94,0.31-2.49-0.09-2.3,1.73c0.16,1.49,0.83,2.63,2.39,2.97c1.53,0.33,2.96,0.02,4.28-0.87
	c0.59-0.4,1.39-0.91,1.85,0.09c0.31,0.66-0.35,1.12-0.83,1.51c-2.24,1.79-4.78,2.22-7.38,1.1
	C339.23,114.95,338.69,112.62,338.73,110.1z"/>
<path class="st7" d="M325.36,110.52c0.16-6.17,4.22-10.24,8.8-9.32c1.22,0.25,2.93,0.56,2.65,2.03c-0.36,1.86-1.76,0.46-2.68,0.21
	c-2.4-0.65-3.85,0.64-4.88,2.46c-1.33,2.36-2.14,4.97-0.3,7.37c1.39,1.81,3.31,1.23,5.07,0.29c0.6-0.32,1.33-1.15,1.91-0.23
	c0.65,1.03-0.42,1.6-1.05,2.05c-2.09,1.46-4.47,1.78-6.73,0.67C325.72,114.85,325.17,112.52,325.36,110.52z"/>
<path class="st15" d="M366.64,116.67c-0.6-0.11-1.5-0.15-2.29-0.46c-0.76-0.3-1.84-0.69-1.44-1.81c0.47-1.33,1.36-0.54,2.12-0.21
	c1.92,0.85,3.87,0.94,4.78-1.23c1.01-2.45-1.28-2.81-2.82-3.46c-1.73-0.73-3.12-1.79-3.03-3.81c0.08-1.87,1.12-3.31,2.87-4.06
	c1.92-0.82,3.88-0.95,5.74,0.22c0.4,0.25,0.84,0.6,0.62,1.21c-0.21,0.57-0.71,0.65-1.21,0.58c-1.1-0.15-2.19-0.48-3.28-0.49
	c-0.91-0.01-1.63,0.59-1.92,1.53c-0.29,0.98,0.12,1.7,0.94,2.21c0.42,0.26,0.86,0.51,1.32,0.7c2.21,0.9,4.19,2.04,3.43,4.92
	C371.73,115.27,369.68,116.48,366.64,116.67z"/>
<path class="st16" d="M231.11,114.09c0.74-6.21,1.45-12.02,2.11-17.83c0.12-1.09,0.29-2.05,1.66-1.93c1.56,0.13,1.18,1.26,1.06,2.24
	c-0.7,5.81-1.37,11.62-2.1,17.43c-0.13,1.04-0.03,2.54-1.69,2.36C230.44,116.17,231.2,114.68,231.11,114.09z"/>
<path class="st17" d="M237.86,114.24c0.75-6.33,1.47-12.27,2.13-18.22c0.13-1.21,0.56-1.9,1.85-1.69c1.3,0.21,0.98,1.17,0.88,2.03
	c-0.71,5.94-1.39,11.88-2.13,17.82c-0.13,1.07-0.23,2.48-1.89,2.15C237.2,116.04,238.08,114.69,237.86,114.24z"/>
<path class="st18" d="M268.36,113.12c0.39-3.18,0.73-6.51,1.23-9.82c0.23-1.52,0.89-2.88,2.49-0.98c1.51,1.79,1.83-0.62,2.81-0.7
	c0.93-0.07,2.04-0.82,2.49,0.57c0.36,1.11-0.48,1.4-1.46,1.62c-3.11,0.68-3.67,3.38-4.35,5.88c-0.35,1.31-0.29,2.72-0.62,4.04
	c-0.25,1.03,0.33,2.97-1.68,2.62C267.36,116.02,268.61,114.35,268.36,113.12z"/>
<path class="st19" d="M357.48,103.74c0.77-0.72,1.25-1.34,1.88-1.7c1.02-0.59,2.43-1.68,3.14-0.06c0.6,1.37-0.94,1.49-2,1.93
	c-3.4,1.42-3.66,4.68-4.25,7.76c-0.32,1.67,0.45,4.75-1.87,4.48c-2.34-0.27-0.82-3.05-0.71-4.71c0.18-2.61,0.57-5.21,0.95-7.79
	c0.13-0.87-0.3-2.24,1.24-2.29C357.37,101.31,356.78,102.89,357.48,103.74z"/>
<path class="st20" d="M296.16,110.78c0.08-4.45,2.36-7.68,5.08-7.58c1.97,0.08,2.77,1.11,2.66,3.14c-0.2,3.82-3.02,8.15-5.42,7.9
	C296.02,113.99,296.33,111.98,296.16,110.78z"/>
<path class="st21" d="M256.51,102.23c0.6-1.86-0.87-5.39,3.58-5.1c2.67,0.17,4.2,1.32,4.1,4.14c-0.11,3.03-2.23,4.87-5.46,4.78
	C256.43,105.98,256.33,105.82,256.51,102.23z"/>
<path class="st22" d="M218.05,110.48c0.16-3.33,1.65-5.91,4.87-7.18c1.64-0.65,3.02-0.4,2.64,1.98c-0.4,2.45-0.69,4.94-2.27,6.99
	c-0.92,1.19-1.96,2.45-3.7,1.8C217.97,113.48,218.24,111.88,218.05,110.48z"/>
<path class="st23" d="M288.54,107.39c-0.04,3.96-2.14,7.04-4.65,6.96c-2.86-0.09-3.33-2.17-3.36-4.43
	c-0.05-3.55,2.18-6.77,4.64-6.68C288.03,103.35,288.39,105.48,288.54,107.39z"/>
<path class="st24" d="M344.04,107.54c-1.08,0-2.22,0.08-1.8-1.24c0.6-1.87,1.9-3.17,4.02-3.26c1.08-0.05,2.21,0.38,2.08,1.56
	C348.04,107.21,345.67,107.04,344.04,107.54z"/>
</svg>
